<svg width="50" height="52" viewBox="0 0 50 52" fill="none" xmlns="http://www.w3.org/2000/svg">
<path d="M0 26C1.13757e-06 11.6406 11.1929 -1.34645e-06 25 0C38.8071 1.34645e-06 50 11.6406 50 26C50 40.3594 38.8071 52 25 52C11.1929 52 -1.13757e-06 40.3594 0 26Z" fill="#FF1276"/>
<path d="M13.4312 27.3486C13.1437 27.0285 13 26.4203 13 25.524C13 24.6277 13.1757 24.0035 13.5271 23.6514H22.6312V14.3841C23.0146 14.128 23.6375 14 24.5 14C25.3625 14 25.9854 14.1441 26.3687 14.4322V23.6514H35.6167C35.8722 24.0035 36 24.6277 36 25.524C36 26.4203 35.8403 27.0285 35.5208 27.3486H26.3687V36.5679C26.0174 36.856 25.3944 37 24.5 37C23.6056 37 22.9826 36.8239 22.6312 36.4718V27.3486H13.4312Z" fill="white"/>
</svg>
