<svg width="176" height="176" viewBox="0 0 176 176" fill="none" xmlns="http://www.w3.org/2000/svg">
<circle cx="88" cy="88" r="88" fill="#FE207D"/>
<path d="M116.551 74.1659L95.051 45.8702C93.1774 43.4132 90.6429 42.0342 88.001 42.0342C85.3592 42.0342 82.8247 43.4132 80.951 45.8702L59.451 74.1659C58.5198 75.4017 57.9971 77.0734 57.9971 78.8159C57.9971 80.5584 58.5198 82.2301 59.451 83.4659C59.9158 84.0841 60.4689 84.5748 61.0781 84.9097C61.6874 85.2445 62.341 85.4169 63.001 85.4169C63.6611 85.4169 64.3146 85.2445 64.9239 84.9097C65.5332 84.5748 66.0862 84.0841 66.551 83.4659L83.001 61.7659V134.319C83.001 136.068 83.5278 137.746 84.4655 138.983C85.4032 140.22 86.675 140.915 88.001 140.915C89.3271 140.915 90.5989 140.22 91.5366 138.983C92.4742 137.746 93.001 136.068 93.001 134.319V61.7659L109.451 83.4659C110.386 84.7079 111.657 85.4091 112.983 85.4153C114.31 85.4215 115.585 84.7322 116.526 83.4989C117.468 82.2656 117.999 80.5895 118.004 78.8392C118.009 77.089 117.486 75.4079 116.551 74.1659V74.1659Z" fill="white"/>
</svg>
